<svg xmlns="http://www.w3.org/2000/svg" xmlns:xlink="http://www.w3.org/1999/xlink" width="562" height="223.193" viewBox="0 0 562 223.193">
  <defs>
    <linearGradient id="linear-gradient" x1="-0.128" y1="-0.163" x2="1.911" y2="1.675" gradientUnits="objectBoundingBox">
      <stop offset="0" stop-color="#fff"/>
      <stop offset="0.382" stop-color="#fff"/>
      <stop offset="1" stop-color="#29abe2"/>
    </linearGradient>
  </defs>
  <g id="Grupo_1" data-name="Grupo 1" transform="translate(-107 -335.458)">
    <path id="Caminho_13" data-name="Caminho 13" d="M107,406.942h30.423c19.92,0,29.7,9.049,29.7,25.664v52.517c0,16.616-9.779,25.665-29.7,25.665H107Zm30.061,89.01c6.338,0,10.141-2.67,10.141-10.087v-54c0-7.418-3.8-10.087-10.141-10.087H126.919v74.175Zm36.218-89.01h54.327v14.835H193.2v27.445h27.345v14.835H193.2v31.9h34.408v14.835H173.28Zm57.768,0h19.919V510.787H231.048Zm40.795,50.736-17.478-50.736H271.12l10.832,33.972,11.122-33.972h15.021l-17.477,50.736,18.344,53.11H292.207l-11.7-36.643L268.52,510.787H253.5Zm39.112-50.736H435.806v14.835H330.873v27.445h97.87v14.835h-97.87v31.9H435.806v14.835H310.954ZM460.106,486.16v-5.934h13.8v7.122c0,7.418,2.919,10.087,7.563,10.087s7.7-2.67,7.7-10.385c0-8.6-3.184-13.945-12.738-23.291-12.206-12.016-16.319-20.62-16.319-32.488,0-16.319,7.563-25.813,21.76-25.813s21.229,9.494,21.229,26.109v4.3H489.3v-5.341c0-7.418-2.653-10.235-7.3-10.235s-7.431,2.818-7.431,9.939c0,7.566,3.318,12.907,12.87,22.252,12.207,12.017,16.186,20.473,16.186,33.38,0,16.912-7.7,26.406-22.024,26.406S460.106,502.776,460.106,486.16Zm48.807,0V406.942h19.92v80.406c0,7.418,3.8,10.087,10.141,10.087s10.141-2.67,10.141-10.087V406.942h19.2V486.16c0,16.616-10.141,26.11-29.7,26.11S508.913,502.776,508.913,486.16Zm105.4,4.3h-23l-3.44,20.324H569.4l20.645-103.845h26.982l20.645,103.845H617.749Zm-2.535-14.094L602.719,424l-8.874,52.367ZM191.8,523.322h29.337l21.187,77.29,21.007-77.29h29.519V627.168h-19.74V545.427l-23,81.741H232.9l-23-81.741v81.741H191.8Zm149.658,83.671H316.8l-3.732,20.175h-14.4l20.659-103.845h20.525L360.78,627.168H345.185Zm-2.8-14.687-9.6-51.329-9.463,51.329Zm31.913-68.983h90.174c24.81,0,36.762,8.308,36.762,26.11v3.411c0,12.017-5.613,18.989-17.928,22.253v.445c12.5,2.374,18.109,9.939,18.109,24.775v12.461c0,5.489.362,10.088,2.536,14.39H479.214c-1.448-3.115-2.173-5.341-2.173-14.39V599.13c0-11.275-5.071-15.428-19.378-15.428H391.212v43.466H370.568Zm87.277,45.692c13.219,0,19.015-4.451,19.015-14.093v-3.412c0-9.346-4.889-13.352-16.3-13.352H391.212v30.857h66.633Zm50.706,30.264V551.212c0-18.841,13.219-29.373,36.4-29.373,23.36,0,36.4,10.533,36.4,29.373v7.418H561.792v-8.011c0-9.346-6.157-14.39-16.478-14.39-9.96,0-16.118,5.044-16.118,14.39v49.252c0,9.346,6.157,14.39,16.118,14.39,10.321,0,16.478-5.044,16.478-14.39V588.893H581.35v10.385c0,18.841-13.039,29.373-36.4,29.373C521.77,628.651,508.551,618.118,508.551,599.278Zm134.191,7.715h-33.5l-5.071,20.175H584.61l28.07-103.845h27.888L669,627.168H647.811Zm-3.8-14.687L625.9,540.977l-12.857,51.329Z" transform="translate(0 -70)" fill="url(#linear-gradient)"/>
  </g>
</svg>
