<svg xmlns="http://www.w3.org/2000/svg" viewBox="0 0 512.57 177.7"><defs><style>.cls-1{fill:#fff;}</style></defs><g id="Layer_2" data-name="Layer 2"><g id="Layer_1-2" data-name="Layer 1"><path class="cls-1" d="M22.81,30.69v112c0,10.37,4.56,14.1,11.82,14.1s11.82-3.73,11.82-14.1v-112H68V141.21c0,23.22-11.61,36.49-34,36.49S0,164.43,0,141.21V30.69Z"/><path class="cls-1" d="M95.59,70.71h-.42V175.83H74.65V30.69h28.61l23,86.88h.41V30.69H147V175.83H123.58Z"/><path class="cls-1" d="M153.44,30.69h22.81V175.83H153.44Z"/><path class="cls-1" d="M218.34,95h31.93v46c0,23.22-11.61,36.49-34,36.49s-34-13.27-34-36.49V65.52c0-23.22,11.61-36.49,34-36.49s34,13.27,34,36.49v14.1H228.71V64.07c0-10.37-4.57-14.31-11.82-14.31s-11.82,3.94-11.82,14.31v78.38c0,10.37,4.56,14.1,11.82,14.1s11.82-3.73,11.82-14.1V115.7H218.34Z"/><path class="cls-1" d="M256.7,65.52C256.7,42.3,268.93,29,291.33,29S326,42.3,326,65.52V141c0,23.22-12.24,36.49-34.63,36.49S256.7,164.22,256.7,141Zm22.81,76.93c0,10.37,4.56,14.31,11.82,14.31s11.82-3.94,11.82-14.31V64.07c0-10.37-4.57-14.31-11.82-14.31s-11.82,3.94-11.82,14.31Z"/><path class="cls-1" d="M332.59,30.69H355.4V175.83H332.59Z"/><path class="cls-1" d="M441.66,175.83h-23L414.7,149.5h-28l-3.94,26.33H361.83L385.05,30.69h33.38ZM426.1,0,405,23H389.61l14.1-23ZM389.61,129.8h22L400.81,56.4h-.42Z"/><path class="cls-1" d="M478.77,29C501,29,512.36,42.3,512.36,65.52v4.56H490.8v-6c0-10.37-4.15-14.31-11.41-14.31S468,53.7,468,64.07c0,10.58,4.56,18.46,19.49,31.52,19.08,16.79,25.09,28.82,25.09,45.41,0,23.22-11.61,36.49-34,36.49s-34-13.27-34-36.49v-8.92h21.56v10.37c0,10.37,4.57,14.1,11.82,14.1s11.82-3.73,11.82-14.1c0-10.57-4.56-18.45-19.49-31.52-19.08-16.79-25.09-28.82-25.09-45.41C445.18,42.3,456.59,29,478.77,29Z"/></g></g></svg>