<svg xmlns="http://www.w3.org/2000/svg" viewBox="0 0 94.141 57.7"><path id="graduation-cap-solid_1_" data-name="graduation-cap-solid (1)" d="M88.631,76.7,48.907,64.5a11.376,11.376,0,0,0-6.663,0L2.519,76.7a3.353,3.353,0,0,0,0,6.492l6.925,2.128A11.222,11.222,0,0,0,6.9,92a4.394,4.394,0,0,0-.363,7.551L2.9,115.91a2.278,2.278,0,0,0,2.223,2.773h7.991a2.278,2.278,0,0,0,2.224-2.773L11.7,99.55a4.383,4.383,0,0,0-.256-7.479,6.718,6.718,0,0,1,2.946-5.229L42.243,95.4a11.389,11.389,0,0,0,6.663,0l39.725-12.2A3.353,3.353,0,0,0,88.631,76.7ZM50.245,99.755a15.942,15.942,0,0,1-9.341,0L20.252,93.411l-2.019,16.158c0,5.034,12.241,9.114,27.342,9.114s27.342-4.08,27.342-9.114L70.9,93.41Z" transform="translate(1.495 -62.483)" fill="none" stroke="#ce5d5b" stroke-width="3"/></svg>
