<svg id="business_center_black_24dp_1_" data-name="business_center_black_24dp (1)" xmlns="http://www.w3.org/2000/svg" width="83.797" height="83.797" viewBox="0 0 83.797 83.797"><path id="Caminho_11" data-name="Caminho 11" d="M0,0H83.8V83.8H0ZM34.915,17.458H48.881v6.983H34.915Zm0,0H48.881v6.983H34.915Z" fill="none"/><path id="Caminho_12" data-name="Caminho 12" d="M29.932,48.39V44.9H5.526L5.492,58.865a6.959,6.959,0,0,0,6.983,6.983H61.356a6.959,6.959,0,0,0,6.983-6.983V44.9H43.9V48.39ZM64.848,16.966h-14V9.983L43.864,3H29.9L22.914,9.983v6.983H8.983A7,7,0,0,0,2,23.949V34.424a6.959,6.959,0,0,0,6.983,6.983H29.932V34.424H43.9v6.983H64.848a7,7,0,0,0,6.983-6.983V23.949A7,7,0,0,0,64.848,16.966Zm-20.949,0H29.932V9.983H43.9Z" transform="translate(4.983 7.475)" fill="none" stroke="#cd5c5b" stroke-width="3"/></svg>
